<svg width="134" height="107" viewBox="0 0 134 107" fill="none" xmlns="http://www.w3.org/2000/svg">
<path d="M67 15.734L68.9805 13.9185L75.5822 19.9701L73.6017 21.7855L67 15.734Z" fill="#272A31"/>
<path d="M60.3983 21.7855L58.4178 19.9701L65.0195 13.9185L67 15.734L60.3983 21.7855Z" fill="#EC5242"/>
<path d="M67 12.1031L65.0195 13.9185L58.4178 7.86699L60.3983 6.05153L67 12.1031Z" fill="#272A31"/>
<path d="M73.6017 6.05153L75.5822 7.86699L68.9805 13.9185L67 12.1031L73.6017 6.05153Z" fill="#EC5242"/>
<path d="M67 79.0643L68.9805 77.2489L75.5822 83.3004L73.6017 85.1159L67 79.0643Z" fill="#272A31"/>
<path d="M60.3983 85.1159L58.4178 83.3004L65.0195 77.2489L67 79.0643L60.3983 85.1159Z" fill="#EC5242"/>
<path d="M67 75.4334L65.0195 77.2489L58.4178 71.1974L60.3983 69.3819L67 75.4334Z" fill="#272A31"/>
<path d="M73.6017 69.3819L75.5822 71.1974L68.9805 77.2489L67 75.4334L73.6017 69.3819Z" fill="#EC5242"/>
<path d="M67 47.3992L68.9805 45.5837L75.5822 51.6352L73.6017 53.4507L67 47.3992Z" fill="#272A31"/>
<path d="M60.3983 53.4507L58.4178 51.6352L65.0195 45.5837L67 47.3992L60.3983 53.4507Z" fill="#EC5242"/>
<path d="M67 43.7682L65.0195 45.5837L58.4178 39.5322L60.3983 37.7167L67 43.7682Z" fill="#272A31"/>
<path d="M73.6017 37.7167L75.5822 39.5322L68.9805 45.5837L67 43.7682L73.6017 37.7167Z" fill="#EC5242"/>
<path d="M67 31.5666L68.9805 29.7511L75.5822 35.8026L73.6017 37.6181L67 31.5666Z" fill="#272A31"/>
<path d="M60.3983 37.6181L58.4178 35.8026L65.0195 29.7511L67 31.5666L60.3983 37.6181Z" fill="#EC5242"/>
<path d="M67 27.9357L65.0195 29.7511L58.4178 23.6996L60.3983 21.8841L67 27.9357Z" fill="#272A31"/>
<path d="M73.6017 21.8841L75.5822 23.6996L68.9805 29.7511L67 27.9357L73.6017 21.8841Z" fill="#EC5242"/>
<path d="M67 94.8969L68.9805 93.0815L75.5822 99.133L73.6017 100.948L67 94.8969Z" fill="#272A31"/>
<path d="M60.3983 100.948L58.4178 99.133L65.0195 93.0815L67 94.8969L60.3983 100.948Z" fill="#EC5242"/>
<path d="M67 91.266L65.0195 93.0815L58.4178 87.0299L60.3983 85.2145L67 91.266Z" fill="#272A31"/>
<path d="M73.6017 85.2145L75.5822 87.03L68.9805 93.0815L67 91.266L73.6017 85.2145Z" fill="#EC5242"/>
<path d="M67 63.2318L68.9805 61.4163L75.5822 67.4678L73.6017 69.2833L67 63.2318Z" fill="#272A31"/>
<path d="M60.3983 69.2833L58.4178 67.4678L65.0195 61.4163L67 63.2318L60.3983 69.2833Z" fill="#EC5242"/>
<path d="M67 59.6008L65.0195 61.4163L58.4178 55.3648L60.3983 53.5493L67 59.6008Z" fill="#272A31"/>
<path d="M73.6017 53.5493L75.5822 55.3648L68.9805 61.4163L67 59.6008L73.6017 53.5493Z" fill="#EC5242"/>
<path d="M32.456 15.734L34.4365 13.9185L41.0382 19.9701L39.0577 21.7855L32.456 15.734Z" fill="#272A31"/>
<path d="M25.8542 21.7855L23.8737 19.9701L30.4754 13.9185L32.456 15.734L25.8542 21.7855Z" fill="#EC5242"/>
<path d="M32.456 12.1031L30.4754 13.9185L23.8737 7.86699L25.8542 6.05153L32.456 12.1031Z" fill="#272A31"/>
<path d="M39.0577 6.05153L41.0382 7.86699L34.4365 13.9185L32.456 12.1031L39.0577 6.05153Z" fill="#EC5242"/>
<path d="M32.456 79.0643L34.4365 77.2489L41.0382 83.3004L39.0577 85.1159L32.456 79.0643Z" fill="#272A31"/>
<path d="M25.8542 85.1159L23.8737 83.3004L30.4754 77.2489L32.456 79.0643L25.8542 85.1159Z" fill="#EC5242"/>
<path d="M32.456 75.4334L30.4754 77.2489L23.8737 71.1973L25.8542 69.3819L32.456 75.4334Z" fill="#272A31"/>
<path d="M39.0577 69.3819L41.0382 71.1973L34.4365 77.2489L32.456 75.4334L39.0577 69.3819Z" fill="#EC5242"/>
<path d="M101.544 15.734L103.525 13.9185L110.126 19.9701L108.146 21.7855L101.544 15.734Z" fill="#272A31"/>
<path d="M94.9423 21.7855L92.9618 19.9701L99.5635 13.9185L101.544 15.734L94.9423 21.7855Z" fill="#EC5242"/>
<path d="M101.544 12.1031L99.5635 13.9185L92.9618 7.86699L94.9423 6.05153L101.544 12.1031Z" fill="#272A31"/>
<path d="M108.146 6.05153L110.126 7.86699L103.525 13.9185L101.544 12.1031L108.146 6.05153Z" fill="#EC5242"/>
<path d="M101.544 79.0643L103.525 77.2489L110.126 83.3004L108.146 85.1159L101.544 79.0643Z" fill="#272A31"/>
<path d="M94.9423 85.1159L92.9618 83.3004L99.5635 77.2489L101.544 79.0643L94.9423 85.1159Z" fill="#EC5242"/>
<path d="M101.544 75.4334L99.5635 77.2489L92.9618 71.1973L94.9423 69.3819L101.544 75.4334Z" fill="#272A31"/>
<path d="M108.146 69.3819L110.126 71.1973L103.525 77.2489L101.544 75.4334L108.146 69.3819Z" fill="#EC5242"/>
<path d="M32.456 47.3992L34.4365 45.5837L41.0382 51.6352L39.0577 53.4507L32.456 47.3992Z" fill="#272A31"/>
<path d="M25.8542 53.4507L23.8737 51.6352L30.4754 45.5837L32.456 47.3992L25.8542 53.4507Z" fill="#EC5242"/>
<path d="M32.456 43.7682L30.4754 45.5837L23.8737 39.5322L25.8542 37.7167L32.456 43.7682Z" fill="#272A31"/>
<path d="M39.0577 37.7167L41.0382 39.5322L34.4365 45.5837L32.456 43.7682L39.0577 37.7167Z" fill="#EC5242"/>
<path d="M101.544 47.3992L103.525 45.5837L110.126 51.6352L108.146 53.4507L101.544 47.3992Z" fill="#272A31"/>
<path d="M94.9423 53.4507L92.9618 51.6352L99.5635 45.5837L101.544 47.3992L94.9423 53.4507Z" fill="#EC5242"/>
<path d="M101.544 43.7682L99.5635 45.5837L92.9618 39.5322L94.9423 37.7167L101.544 43.7682Z" fill="#272A31"/>
<path d="M108.146 37.7167L110.126 39.5322L103.525 45.5837L101.544 43.7682L108.146 37.7167Z" fill="#EC5242"/>
<path d="M32.456 31.5666L34.4365 29.7511L41.0382 35.8026L39.0577 37.6181L32.456 31.5666Z" fill="#272A31"/>
<path d="M25.8542 37.6181L23.8737 35.8026L30.4754 29.7511L32.456 31.5666L25.8542 37.6181Z" fill="#EC5242"/>
<path d="M32.456 27.9356L30.4754 29.7511L23.8737 23.6996L25.8542 21.8841L32.456 27.9356Z" fill="#272A31"/>
<path d="M39.0577 21.8841L41.0382 23.6996L34.4365 29.7511L32.456 27.9357L39.0577 21.8841Z" fill="#EC5242"/>
<path d="M32.456 94.8969L34.4365 93.0815L41.0382 99.133L39.0577 100.948L32.456 94.8969Z" fill="#272A31"/>
<path d="M25.8542 100.948L23.8737 99.133L30.4754 93.0815L32.456 94.8969L25.8542 100.948Z" fill="#EC5242"/>
<path d="M32.456 91.266L30.4754 93.0815L23.8737 87.03L25.8542 85.2145L32.456 91.266Z" fill="#272A31"/>
<path d="M39.0577 85.2145L41.0382 87.03L34.4365 93.0815L32.456 91.266L39.0577 85.2145Z" fill="#EC5242"/>
<path d="M101.544 31.5666L103.525 29.7511L110.126 35.8026L108.146 37.6181L101.544 31.5666Z" fill="#272A31"/>
<path d="M94.9423 37.6181L92.9618 35.8026L99.5635 29.7511L101.544 31.5666L94.9423 37.6181Z" fill="#EC5242"/>
<path d="M101.544 27.9357L99.5635 29.7511L92.9618 23.6996L94.9423 21.8841L101.544 27.9357Z" fill="#272A31"/>
<path d="M108.146 21.8841L110.126 23.6996L103.525 29.7511L101.544 27.9357L108.146 21.8841Z" fill="#EC5242"/>
<path d="M101.544 94.8969L103.525 93.0815L110.126 99.133L108.146 100.948L101.544 94.8969Z" fill="#272A31"/>
<path d="M94.9423 100.948L92.9618 99.133L99.5635 93.0815L101.544 94.8969L94.9423 100.948Z" fill="#EC5242"/>
<path d="M101.544 91.266L99.5635 93.0815L92.9618 87.03L94.9423 85.2145L101.544 91.266Z" fill="#272A31"/>
<path d="M108.146 85.2145L110.126 87.03L103.525 93.0815L101.544 91.266L108.146 85.2145Z" fill="#EC5242"/>
<path d="M32.456 63.2318L34.4365 61.4163L41.0382 67.4678L39.0577 69.2833L32.456 63.2318Z" fill="#272A31"/>
<path d="M25.8542 69.2833L23.8737 67.4678L30.4754 61.4163L32.456 63.2318L25.8542 69.2833Z" fill="#EC5242"/>
<path d="M32.456 59.6008L30.4754 61.4163L23.8737 55.3648L25.8542 53.5493L32.456 59.6008Z" fill="#272A31"/>
<path d="M39.0577 53.5493L41.0382 55.3648L34.4365 61.4163L32.456 59.6008L39.0577 53.5493Z" fill="#EC5242"/>
<path d="M101.544 63.2318L103.525 61.4163L110.126 67.4678L108.146 69.2833L101.544 63.2318Z" fill="#272A31"/>
<path d="M94.9423 69.2833L92.9618 67.4678L99.5635 61.4163L101.544 63.2318L94.9423 69.2833Z" fill="#EC5242"/>
<path d="M101.544 59.6008L99.5635 61.4163L92.9618 55.3648L94.9423 53.5493L101.544 59.6008Z" fill="#272A31"/>
<path d="M108.146 53.5493L110.126 55.3648L103.525 61.4163L101.544 59.6008L108.146 53.5493Z" fill="#EC5242"/>
<path d="M15.1839 15.734L17.1645 13.9185L23.7662 19.9701L21.7857 21.7855L15.1839 15.734Z" fill="#272A31"/>
<path d="M8.58224 21.7855L6.60173 19.9701L13.2034 13.9185L15.184 15.734L8.58224 21.7855Z" fill="#EC5242"/>
<path d="M15.184 12.1031L13.2034 13.9185L6.60173 7.86699L8.58224 6.05153L15.184 12.1031Z" fill="#272A31"/>
<path d="M21.7857 6.05153L23.7662 7.86699L17.1645 13.9185L15.184 12.1031L21.7857 6.05153Z" fill="#EC5242"/>
<path d="M15.1839 79.0643L17.1645 77.2489L23.7662 83.3004L21.7857 85.1159L15.1839 79.0643Z" fill="#272A31"/>
<path d="M8.58224 85.1159L6.60173 83.3004L13.2034 77.2489L15.184 79.0643L8.58224 85.1159Z" fill="#EC5242"/>
<path d="M15.1839 75.4334L13.2034 77.2489L6.60173 71.1973L8.58224 69.3819L15.1839 75.4334Z" fill="#272A31"/>
<path d="M21.7857 69.3819L23.7662 71.1973L17.1645 77.2489L15.1839 75.4334L21.7857 69.3819Z" fill="#EC5242"/>
<path d="M84.272 15.734L86.2525 13.9185L92.8542 19.9701L90.8737 21.7855L84.272 15.734Z" fill="#272A31"/>
<path d="M77.6703 21.7855L75.6898 19.9701L82.2915 13.9185L84.272 15.734L77.6703 21.7855Z" fill="#EC5242"/>
<path d="M84.272 12.1031L82.2915 13.9185L75.6898 7.86699L77.6703 6.05153L84.272 12.1031Z" fill="#272A31"/>
<path d="M90.8737 6.05153L92.8542 7.86699L86.2525 13.9185L84.272 12.1031L90.8737 6.05153Z" fill="#EC5242"/>
<path d="M84.272 79.0643L86.2525 77.2489L92.8542 83.3004L90.8737 85.1159L84.272 79.0643Z" fill="#272A31"/>
<path d="M77.6703 85.1159L75.6898 83.3004L82.2915 77.2489L84.272 79.0643L77.6703 85.1159Z" fill="#EC5242"/>
<path d="M84.272 75.4334L82.2915 77.2489L75.6898 71.1974L77.6703 69.3819L84.272 75.4334Z" fill="#272A31"/>
<path d="M90.8737 69.3819L92.8542 71.1974L86.2525 77.2489L84.272 75.4334L90.8737 69.3819Z" fill="#EC5242"/>
<path d="M15.1839 47.3992L17.1645 45.5837L23.7662 51.6352L21.7857 53.4507L15.1839 47.3992Z" fill="#272A31"/>
<path d="M8.58224 53.4507L6.60173 51.6352L13.2034 45.5837L15.184 47.3992L8.58224 53.4507Z" fill="#EC5242"/>
<path d="M15.1839 43.7682L13.2034 45.5837L6.60173 39.5322L8.58224 37.7167L15.1839 43.7682Z" fill="#272A31"/>
<path d="M21.7857 37.7167L23.7662 39.5322L17.1645 45.5837L15.1839 43.7682L21.7857 37.7167Z" fill="#EC5242"/>
<path d="M84.272 47.3992L86.2525 45.5837L92.8542 51.6352L90.8737 53.4507L84.272 47.3992Z" fill="#272A31"/>
<path d="M77.6703 53.4507L75.6898 51.6352L82.2915 45.5837L84.272 47.3992L77.6703 53.4507Z" fill="#EC5242"/>
<path d="M84.272 43.7682L82.2915 45.5837L75.6898 39.5322L77.6703 37.7167L84.272 43.7682Z" fill="#272A31"/>
<path d="M90.8737 37.7167L92.8542 39.5322L86.2525 45.5837L84.272 43.7682L90.8737 37.7167Z" fill="#EC5242"/>
<path d="M15.184 31.5666L17.1645 29.7511L23.7662 35.8026L21.7857 37.6181L15.184 31.5666Z" fill="#272A31"/>
<path d="M8.58224 37.6181L6.60173 35.8026L13.2034 29.7511L15.184 31.5666L8.58224 37.6181Z" fill="#EC5242"/>
<path d="M15.184 27.9356L13.2034 29.7511L6.60173 23.6996L8.58224 21.8841L15.184 27.9356Z" fill="#272A31"/>
<path d="M21.7857 21.8841L23.7662 23.6996L17.1645 29.7511L15.184 27.9357L21.7857 21.8841Z" fill="#EC5242"/>
<path d="M15.1839 94.8969L17.1645 93.0815L23.7662 99.133L21.7857 100.948L15.1839 94.8969Z" fill="#272A31"/>
<path d="M8.58224 100.948L6.60173 99.133L13.2034 93.0815L15.184 94.8969L8.58224 100.948Z" fill="#EC5242"/>
<path d="M15.1839 91.266L13.2034 93.0815L6.60173 87.03L8.58224 85.2145L15.1839 91.266Z" fill="#272A31"/>
<path d="M21.7857 85.2145L23.7662 87.03L17.1645 93.0815L15.1839 91.266L21.7857 85.2145Z" fill="#EC5242"/>
<path d="M84.272 31.5666L86.2525 29.7511L92.8542 35.8026L90.8737 37.6181L84.272 31.5666Z" fill="#272A31"/>
<path d="M77.6703 37.6181L75.6898 35.8026L82.2915 29.7511L84.272 31.5666L77.6703 37.6181Z" fill="#EC5242"/>
<path d="M84.272 27.9357L82.2915 29.7511L75.6898 23.6996L77.6703 21.8841L84.272 27.9357Z" fill="#272A31"/>
<path d="M90.8737 21.8841L92.8542 23.6996L86.2525 29.7511L84.272 27.9357L90.8737 21.8841Z" fill="#EC5242"/>
<path d="M84.272 94.8969L86.2525 93.0815L92.8542 99.133L90.8737 100.948L84.272 94.8969Z" fill="#272A31"/>
<path d="M77.6703 100.948L75.6898 99.133L82.2915 93.0815L84.272 94.8969L77.6703 100.948Z" fill="#EC5242"/>
<path d="M84.272 91.266L82.2915 93.0815L75.6898 87.03L77.6703 85.2145L84.272 91.266Z" fill="#272A31"/>
<path d="M90.8737 85.2145L92.8542 87.03L86.2525 93.0815L84.272 91.266L90.8737 85.2145Z" fill="#EC5242"/>
<path d="M15.184 63.2318L17.1645 61.4163L23.7662 67.4678L21.7857 69.2833L15.184 63.2318Z" fill="#272A31"/>
<path d="M8.58225 69.2833L6.60173 67.4678L13.2034 61.4163L15.184 63.2318L8.58225 69.2833Z" fill="#EC5242"/>
<path d="M15.184 59.6008L13.2034 61.4163L6.60173 55.3648L8.58224 53.5493L15.184 59.6008Z" fill="#272A31"/>
<path d="M21.7857 53.5493L23.7662 55.3648L17.1645 61.4163L15.184 59.6008L21.7857 53.5493Z" fill="#EC5242"/>
<path d="M84.272 63.2318L86.2525 61.4163L92.8542 67.4678L90.8737 69.2833L84.272 63.2318Z" fill="#272A31"/>
<path d="M77.6703 69.2833L75.6898 67.4678L82.2915 61.4163L84.272 63.2318L77.6703 69.2833Z" fill="#EC5242"/>
<path d="M84.272 59.6008L82.2915 61.4163L75.6898 55.3648L77.6703 53.5493L84.272 59.6008Z" fill="#272A31"/>
<path d="M90.8737 53.5493L92.8542 55.3648L86.2525 61.4163L84.272 59.6008L90.8737 53.5493Z" fill="#EC5242"/>
<path d="M49.728 15.734L51.7085 13.9185L58.3102 19.9701L56.3297 21.7855L49.728 15.734Z" fill="#272A31"/>
<path d="M43.1263 21.7855L41.1458 19.9701L47.7475 13.9185L49.728 15.734L43.1263 21.7855Z" fill="#EC5242"/>
<path d="M49.728 12.1031L47.7475 13.9185L41.1458 7.86699L43.1263 6.05153L49.728 12.1031Z" fill="#272A31"/>
<path d="M56.3297 6.05153L58.3102 7.86699L51.7085 13.9185L49.728 12.1031L56.3297 6.05153Z" fill="#EC5242"/>
<path d="M49.728 79.0643L51.7085 77.2489L58.3102 83.3004L56.3297 85.1159L49.728 79.0643Z" fill="#272A31"/>
<path d="M43.1263 85.1159L41.1458 83.3004L47.7475 77.2489L49.728 79.0643L43.1263 85.1159Z" fill="#EC5242"/>
<path d="M49.728 75.4334L47.7475 77.2489L41.1458 71.1973L43.1263 69.3819L49.728 75.4334Z" fill="#272A31"/>
<path d="M56.3297 69.3819L58.3102 71.1973L51.7085 77.2489L49.728 75.4334L56.3297 69.3819Z" fill="#EC5242"/>
<path d="M118.816 15.734L120.797 13.9185L127.398 19.9701L125.418 21.7855L118.816 15.734Z" fill="#272A31"/>
<path d="M112.214 21.7855L110.234 19.9701L116.836 13.9185L118.816 15.734L112.214 21.7855Z" fill="#EC5242"/>
<path d="M118.816 12.1031L116.836 13.9185L110.234 7.86699L112.214 6.05153L118.816 12.1031Z" fill="#272A31"/>
<path d="M125.418 6.05153L127.398 7.86699L120.797 13.9185L118.816 12.1031L125.418 6.05153Z" fill="#EC5242"/>
<path d="M118.816 79.0643L120.797 77.2489L127.398 83.3004L125.418 85.1159L118.816 79.0643Z" fill="#272A31"/>
<path d="M112.214 85.1159L110.234 83.3004L116.836 77.2489L118.816 79.0643L112.214 85.1159Z" fill="#EC5242"/>
<path d="M118.816 75.4334L116.836 77.2489L110.234 71.1973L112.214 69.3819L118.816 75.4334Z" fill="#272A31"/>
<path d="M125.418 69.3819L127.398 71.1973L120.797 77.2489L118.816 75.4334L125.418 69.3819Z" fill="#EC5242"/>
<path d="M49.728 47.3992L51.7085 45.5837L58.3102 51.6352L56.3297 53.4507L49.728 47.3992Z" fill="#272A31"/>
<path d="M43.1263 53.4507L41.1458 51.6352L47.7475 45.5837L49.728 47.3992L43.1263 53.4507Z" fill="#EC5242"/>
<path d="M49.728 43.7682L47.7475 45.5837L41.1458 39.5322L43.1263 37.7167L49.728 43.7682Z" fill="#272A31"/>
<path d="M56.3297 37.7167L58.3102 39.5322L51.7085 45.5837L49.728 43.7682L56.3297 37.7167Z" fill="#EC5242"/>
<path d="M118.816 47.3992L120.797 45.5837L127.398 51.6352L125.418 53.4507L118.816 47.3992Z" fill="#272A31"/>
<path d="M112.214 53.4507L110.234 51.6352L116.836 45.5837L118.816 47.3992L112.214 53.4507Z" fill="#EC5242"/>
<path d="M118.816 43.7682L116.836 45.5837L110.234 39.5322L112.214 37.7167L118.816 43.7682Z" fill="#272A31"/>
<path d="M125.418 37.7167L127.398 39.5322L120.797 45.5837L118.816 43.7682L125.418 37.7167Z" fill="#EC5242"/>
<path d="M49.728 31.5666L51.7085 29.7511L58.3102 35.8026L56.3297 37.6181L49.728 31.5666Z" fill="#272A31"/>
<path d="M43.1263 37.6181L41.1458 35.8026L47.7475 29.7511L49.728 31.5666L43.1263 37.6181Z" fill="#EC5242"/>
<path d="M49.728 27.9356L47.7475 29.7511L41.1458 23.6996L43.1263 21.8841L49.728 27.9356Z" fill="#272A31"/>
<path d="M56.3297 21.8841L58.3102 23.6996L51.7085 29.7511L49.728 27.9357L56.3297 21.8841Z" fill="#EC5242"/>
<path d="M49.728 94.8969L51.7085 93.0815L58.3102 99.133L56.3297 100.948L49.728 94.8969Z" fill="#272A31"/>
<path d="M43.1263 100.948L41.1458 99.133L47.7475 93.0815L49.728 94.8969L43.1263 100.948Z" fill="#EC5242"/>
<path d="M49.728 91.266L47.7475 93.0815L41.1458 87.03L43.1263 85.2145L49.728 91.266Z" fill="#272A31"/>
<path d="M56.3297 85.2145L58.3102 87.03L51.7085 93.0815L49.728 91.266L56.3297 85.2145Z" fill="#EC5242"/>
<path d="M118.816 31.5666L120.797 29.7511L127.398 35.8026L125.418 37.6181L118.816 31.5666Z" fill="#272A31"/>
<path d="M112.214 37.6181L110.234 35.8026L116.836 29.7511L118.816 31.5666L112.214 37.6181Z" fill="#EC5242"/>
<path d="M118.816 27.9357L116.836 29.7511L110.234 23.6996L112.214 21.8841L118.816 27.9357Z" fill="#272A31"/>
<path d="M125.418 21.8841L127.398 23.6996L120.797 29.7511L118.816 27.9357L125.418 21.8841Z" fill="#EC5242"/>
<path d="M118.816 94.8969L120.797 93.0815L127.398 99.133L125.418 100.948L118.816 94.8969Z" fill="#272A31"/>
<path d="M112.214 100.948L110.234 99.133L116.836 93.0815L118.816 94.8969L112.214 100.948Z" fill="#EC5242"/>
<path d="M118.816 91.266L116.836 93.0815L110.234 87.03L112.214 85.2145L118.816 91.266Z" fill="#272A31"/>
<path d="M125.418 85.2145L127.398 87.03L120.797 93.0815L118.816 91.266L125.418 85.2145Z" fill="#EC5242"/>
<path d="M49.728 63.2318L51.7085 61.4163L58.3102 67.4678L56.3297 69.2833L49.728 63.2318Z" fill="#272A31"/>
<path d="M43.1263 69.2833L41.1458 67.4678L47.7475 61.4163L49.728 63.2318L43.1263 69.2833Z" fill="#EC5242"/>
<path d="M49.728 59.6008L47.7475 61.4163L41.1458 55.3648L43.1263 53.5493L49.728 59.6008Z" fill="#272A31"/>
<path d="M56.3297 53.5493L58.3102 55.3648L51.7085 61.4163L49.728 59.6008L56.3297 53.5493Z" fill="#EC5242"/>
<path d="M118.816 63.2318L120.797 61.4163L127.398 67.4678L125.418 69.2833L118.816 63.2318Z" fill="#272A31"/>
<path d="M112.214 69.2833L110.234 67.4678L116.836 61.4163L118.816 63.2318L112.214 69.2833Z" fill="#EC5242"/>
<path d="M118.816 59.6008L116.836 61.4163L110.234 55.3648L112.214 53.5493L118.816 59.6008Z" fill="#272A31"/>
<path d="M125.418 53.5493L127.398 55.3648L120.797 61.4163L118.816 59.6008L125.418 53.5493Z" fill="#EC5242"/>
</svg>
